<svg width="41" height="42" viewBox="0 0 41 42" fill="none" xmlns="http://www.w3.org/2000/svg">
<path fill-rule="evenodd" clip-rule="evenodd" d="M27.3333 39.8125C29.9266 39.8125 32.0312 37.6565 32.0312 35V7C32.0312 4.3435 29.9266 2.1875 27.3333 2.1875H13.6667C11.0734 2.1875 8.96875 4.3435 8.96875 7V35C8.96875 37.6565 11.0734 39.8125 13.6667 39.8125H27.3333ZM27.3333 37.1875H13.6667C12.4879 37.1875 11.5312 36.2075 11.5312 35V7C11.5312 5.7925 12.4879 4.8125 13.6667 4.8125H27.3333C28.5121 4.8125 29.4688 5.7925 29.4688 7V35C29.4688 36.2075 28.5121 37.1875 27.3333 37.1875Z" fill="white"/>
<path fill-rule="evenodd" clip-rule="evenodd" d="M17.0835 6.5625H23.9168C24.6241 6.5625 25.1981 5.9745 25.1981 5.25C25.1981 4.5255 24.6241 3.9375 23.9168 3.9375H17.0835C16.3762 3.9375 15.8022 4.5255 15.8022 5.25C15.8022 5.9745 16.3762 6.5625 17.0835 6.5625Z" fill="white"/>
</svg>
