<svg width="26" height="27" viewBox="0 0 26 27" fill="none" xmlns="http://www.w3.org/2000/svg">
<path d="M21.6665 4.8335H4.33317C3.1415 4.8335 2.17734 5.8085 2.17734 7.00016L2.1665 20.0002C2.1665 21.1918 3.1415 22.1668 4.33317 22.1668H21.6665C22.8582 22.1668 23.8332 21.1918 23.8332 20.0002V7.00016C23.8332 5.8085 22.8582 4.8335 21.6665 4.8335ZM21.2332 9.43766L13.574 14.226C13.2273 14.4427 12.7723 14.4427 12.4257 14.226L4.7665 9.43766C4.65788 9.37668 4.56275 9.2943 4.48688 9.19549C4.41102 9.09668 4.35599 8.98351 4.32513 8.86281C4.29427 8.74212 4.28822 8.61643 4.30734 8.49333C4.32646 8.37023 4.37037 8.25229 4.43639 8.14666C4.50242 8.04102 4.58919 7.94987 4.69146 7.87874C4.79373 7.80761 4.90936 7.75797 5.03137 7.73282C5.15338 7.70767 5.27923 7.70754 5.40129 7.73244C5.52335 7.75734 5.63909 7.80674 5.7415 7.87766L12.9998 12.4168L20.2582 7.87766C20.3606 7.80674 20.4763 7.75734 20.5984 7.73244C20.7204 7.70754 20.8463 7.70767 20.9683 7.73282C21.0903 7.75797 21.2059 7.80761 21.3082 7.87874C21.4105 7.94987 21.4973 8.04102 21.5633 8.14666C21.6293 8.25229 21.6732 8.37023 21.6923 8.49333C21.7115 8.61643 21.7054 8.74212 21.6745 8.86281C21.6437 8.98351 21.5887 9.09668 21.5128 9.19549C21.4369 9.2943 21.3418 9.37668 21.2332 9.43766Z" fill="white"/>
</svg>
