<svg width="30" height="31" viewBox="0 0 30 31" fill="none" xmlns="http://www.w3.org/2000/svg">
<path d="M9.19238 14.3838V12.3776C9.19238 12.2588 9.19238 12.2113 9.34738 12.2113C10.6761 12.2113 11.7561 12.1326 12.2924 12.4488C12.8299 12.7638 12.8524 13.1988 12.8611 13.3288C12.8699 13.4588 12.8661 13.6451 12.6161 14.0988C12.3661 14.5526 11.2474 14.5613 10.4399 14.5613H9.37113C9.23988 14.5613 9.19238 14.5138 9.19238 14.3838ZM12.8749 16.4863C12.9987 16.6444 13.0871 16.8272 13.134 17.0224C13.1809 17.2176 13.1854 17.4206 13.1469 17.6176C13.1085 17.8146 13.0282 18.0011 12.9114 18.1644C12.7945 18.3277 12.644 18.4639 12.4699 18.5638C12.2141 18.6714 11.9398 18.7279 11.6624 18.7301H9.35863C9.23988 18.7301 9.19238 18.7301 9.19238 18.5763V16.2013C9.19238 16.0826 9.19238 16.0351 9.34738 16.0351H10.8786C11.8286 16.0351 12.4224 15.9526 12.8749 16.4863Z" fill="white"/>
<path d="M21.2363 15.3863C21.1726 15.2361 21.0759 15.1021 20.9534 14.9944C20.831 14.8866 20.6858 14.8078 20.5288 14.7638C20.2148 14.678 19.8862 14.6598 19.5647 14.7104C19.2432 14.7611 18.9361 14.8794 18.6637 15.0575C18.3923 15.3318 18.2169 15.6865 18.1638 16.0687C18.1638 16.2025 18.1637 16.2275 18.3225 16.2275H21.285C21.4312 16.2275 21.4313 16.2275 21.4188 16.0438C21.4047 15.814 21.3434 15.5899 21.2363 15.3863ZM21.2363 15.3863C21.1726 15.2361 21.0746 15.1021 20.9522 14.9944C20.8297 14.8866 20.6858 14.8078 20.5288 14.7638C20.2148 14.678 19.8862 14.6598 19.5647 14.7104C19.2432 14.7611 18.9361 14.8794 18.6637 15.0575C18.3923 15.3318 18.2156 15.6865 18.1625 16.0687C18.1625 16.2025 18.1625 16.2275 18.3212 16.2275H21.285C21.4312 16.2275 21.4313 16.2275 21.4188 16.0438C21.4047 15.814 21.3409 15.5899 21.2337 15.3863M22.625 3.625H8C6.70707 3.625 5.46709 4.13861 4.55285 5.05285C3.63861 5.96709 3.125 7.20707 3.125 8.5V23.125C3.125 24.4179 3.63861 25.6579 4.55285 26.5721C5.46709 27.4864 6.70707 28 8 28H22.625C23.9179 28 25.1579 27.4864 26.0721 26.5721C26.9864 25.6579 27.5 24.4179 27.5 23.125V8.5C27.5 7.20707 26.9864 5.96709 26.0721 5.05285C25.1579 4.13861 23.9179 3.625 22.625 3.625ZM17.8475 11.3875C17.8475 11.2913 17.8475 11.2537 17.9575 11.2537H21.9062V12.2788C21.9062 12.2788 21.91 12.3512 21.845 12.3512H18.0187C17.8475 12.3512 17.8475 12.3513 17.8475 12.1813V11.3875ZM14.1912 20.3462C12.6912 21.1625 10.17 20.8338 7.18375 20.8338V10.73H11.9488C13.1675 10.73 14.6175 11.035 15.0075 12.3263C15.21 12.8902 15.1977 13.509 14.9729 14.0645C14.7481 14.62 14.3265 15.0731 13.7888 15.3375C14.2844 15.5209 14.7172 15.8425 15.0358 16.2642C15.3544 16.686 15.5456 17.1901 15.5866 17.7171C15.6276 18.244 15.5168 18.7717 15.2673 19.2376C15.0178 19.7036 14.6401 20.0883 14.1788 20.3462H14.1912ZM23.2713 17.47H18.3963C18.2625 17.47 18.14 17.5425 18.1638 17.7137C18.31 18.4325 18.6387 19.1887 19.3837 19.2987C19.7771 19.4158 20.1984 19.3978 20.5803 19.2476C20.9623 19.0974 21.283 18.8237 21.4913 18.47C21.4913 18.47 21.5525 18.3963 21.5887 18.3963H23.1737C23.1737 18.3963 23.2713 18.3963 23.2463 18.4813C23.0791 18.9546 22.8317 19.3956 22.515 19.785C22.0914 20.1896 21.5802 20.4912 21.0212 20.6663C20.4621 20.8414 19.8703 20.8853 19.2915 20.7947C18.7127 20.704 18.1627 20.4812 17.684 20.1435C17.2053 19.8058 16.8108 19.3623 16.5313 18.8475C16.3593 18.5042 16.2521 18.1322 16.215 17.75C15.9976 16.7895 16.1638 15.7821 16.6781 14.9422C17.1925 14.1024 18.0144 13.4966 18.9688 13.2538C21.735 12.6563 23.49 14.5575 23.49 17.2387C23.4941 17.2701 23.4909 17.3019 23.4808 17.3319C23.4706 17.3618 23.4537 17.389 23.4313 17.4113C23.409 17.4337 23.3818 17.4506 23.3519 17.4608C23.322 17.4709 23.2901 17.4741 23.2588 17.47H23.2713ZM20.5413 14.7638C20.2276 14.6767 19.8988 14.6588 19.5775 14.7113C19.2562 14.7613 18.9687 14.8225 18.6762 15.0575C18.3837 15.2912 18.2288 15.6862 18.1763 16.0687C18.1763 16.2025 18.1763 16.2275 18.335 16.2275H21.285C21.4312 16.2275 21.4313 16.2275 21.4188 16.0438C21.4047 15.814 21.3434 15.5899 21.2363 15.3863C21.1726 15.2361 21.0759 15.1021 20.9534 14.9944C20.831 14.8866 20.6858 14.8078 20.5288 14.7638H20.5413Z" fill="white"/>
</svg>
