<svg width="30" height="31" viewBox="0 0 30 31" fill="none" xmlns="http://www.w3.org/2000/svg">
<path fill-rule="evenodd" clip-rule="evenodd" d="M22.5 4.25C23.4946 4.25 24.4484 4.64509 25.1517 5.34835C25.8549 6.05161 26.25 7.00544 26.25 8V23C26.25 23.9946 25.8549 24.9484 25.1517 25.6517C24.4484 26.3549 23.4946 26.75 22.5 26.75H7.5C6.50544 26.75 5.55161 26.3549 4.84835 25.6517C4.14509 24.9484 3.75 23.9946 3.75 23V8C3.75 7.00544 4.14509 6.05161 4.84835 5.34835C5.55161 4.64509 6.50544 4.25 7.5 4.25H22.5ZM10 13C9.66848 13 9.35054 13.1317 9.11612 13.3661C8.8817 13.6005 8.75 13.9185 8.75 14.25V20.5C8.75 20.8315 8.8817 21.1495 9.11612 21.3839C9.35054 21.6183 9.66848 21.75 10 21.75C10.3315 21.75 10.6495 21.6183 10.8839 21.3839C11.1183 21.1495 11.25 20.8315 11.25 20.5V14.25C11.25 13.9185 11.1183 13.6005 10.8839 13.3661C10.6495 13.1317 10.3315 13 10 13ZM13.75 11.75C13.4185 11.75 13.1005 11.8817 12.8661 12.1161C12.6317 12.3505 12.5 12.6685 12.5 13V20.5C12.5 20.8315 12.6317 21.1495 12.8661 21.3839C13.1005 21.6183 13.4185 21.75 13.75 21.75C14.0815 21.75 14.3995 21.6183 14.6339 21.3839C14.8683 21.1495 15 20.8315 15 20.5V15.925C15.3813 15.495 16.025 14.99 16.7412 14.6838C17.1575 14.5063 17.7837 14.4337 18.2187 14.5712C18.3631 14.6079 18.4916 14.6903 18.585 14.8062C18.65 14.8937 18.75 15.0888 18.75 15.5V20.5C18.75 20.8315 18.8817 21.1495 19.1161 21.3839C19.3505 21.6183 19.6685 21.75 20 21.75C20.3315 21.75 20.6495 21.6183 20.8839 21.3839C21.1183 21.1495 21.25 20.8315 21.25 20.5V15.5C21.25 14.6625 21.0375 13.9175 20.595 13.32C20.1878 12.7782 19.6179 12.3809 18.9688 12.1862C17.8413 11.8325 16.5925 12.0287 15.7588 12.3862C15.4918 12.5011 15.2318 12.6313 14.98 12.7763C14.9276 12.4882 14.7758 12.2277 14.551 12.0402C14.3262 11.8527 14.0427 11.75 13.75 11.75ZM10 9.25C9.66848 9.25 9.35054 9.3817 9.11612 9.61612C8.8817 9.85054 8.75 10.1685 8.75 10.5C8.75 10.8315 8.8817 11.1495 9.11612 11.3839C9.35054 11.6183 9.66848 11.75 10 11.75C10.3315 11.75 10.6495 11.6183 10.8839 11.3839C11.1183 11.1495 11.25 10.8315 11.25 10.5C11.25 10.1685 11.1183 9.85054 10.8839 9.61612C10.6495 9.3817 10.3315 9.25 10 9.25Z" fill="white"/>
</svg>
