<svg width="30" height="31" viewBox="0 0 30 31" fill="none" xmlns="http://www.w3.org/2000/svg">
<path d="M3.75 14.25C3.75 9.53625 3.75 7.17875 5.215 5.715C6.68 4.25125 9.03625 4.25 13.75 4.25H16.25C20.9637 4.25 23.3212 4.25 24.785 5.715C26.2487 7.18 26.25 9.53625 26.25 14.25V16.75C26.25 21.4637 26.25 23.8212 24.785 25.285C23.32 26.7487 20.9637 26.75 16.25 26.75H13.75C9.03625 26.75 6.67875 26.75 5.215 25.285C3.75125 23.82 3.75 21.4637 3.75 16.75V14.25Z" stroke="white" stroke-width="2"/>
<path d="M20.625 11.75C21.6605 11.75 22.5 10.9105 22.5 9.875C22.5 8.83947 21.6605 8 20.625 8C19.5895 8 18.75 8.83947 18.75 9.875C18.75 10.9105 19.5895 11.75 20.625 11.75Z" fill="white"/>
<path d="M15 19.25C17.0711 19.25 18.75 17.5711 18.75 15.5C18.75 13.4289 17.0711 11.75 15 11.75C12.9289 11.75 11.25 13.4289 11.25 15.5C11.25 17.5711 12.9289 19.25 15 19.25Z" stroke="white" stroke-width="2"/>
</svg>
