<svg width="240" height="158" viewBox="0 0 240 158" fill="none" xmlns="http://www.w3.org/2000/svg">
<g filter="url(#filter0_i_325_72)">
<path d="M79 54H146L136.5 75H70L79 54Z" fill="white"/>
</g>
<g filter="url(#filter1_i_325_72)">
<path d="M128.142 38L146 54H127L128.142 38Z" fill="white"/>
</g>
<g filter="url(#filter2_i_325_72)">
<path d="M102 0H169L159.5 21H93L102 0Z" fill="white"/>
</g>
<g filter="url(#filter3_i_325_72)">
<path d="M109.291 38L112 21H93L109.291 38Z" fill="white"/>
</g>
<path d="M18.0319 105.72C18.0319 106.94 17.7519 108.06 17.1919 109.08C16.6319 110.08 15.7719 110.89 14.6119 111.51C13.4519 112.13 12.0119 112.44 10.2919 112.44H7.11187V120H1.98187V98.94H10.2919C11.9719 98.94 13.3919 99.23 14.5519 99.81C15.7119 100.39 16.5819 101.19 17.1619 102.21C17.7419 103.23 18.0319 104.4 18.0319 105.72ZM9.90187 108.36C10.8819 108.36 11.6119 108.13 12.0919 107.67C12.5719 107.21 12.8119 106.56 12.8119 105.72C12.8119 104.88 12.5719 104.23 12.0919 103.77C11.6119 103.31 10.8819 103.08 9.90187 103.08H7.11187V108.36H9.90187ZM40.0826 111.36C40.0826 111.84 40.0526 112.34 39.9926 112.86H28.3826C28.4626 113.9 28.7926 114.7 29.3726 115.26C29.9726 115.8 30.7026 116.07 31.5626 116.07C32.8426 116.07 33.7326 115.53 34.2326 114.45H39.6926C39.4126 115.55 38.9026 116.54 38.1626 117.42C37.4426 118.3 36.5326 118.99 35.4326 119.49C34.3326 119.99 33.1026 120.24 31.7426 120.24C30.1026 120.24 28.6426 119.89 27.3626 119.19C26.0826 118.49 25.0826 117.49 24.3626 116.19C23.6426 114.89 23.2826 113.37 23.2826 111.63C23.2826 109.89 23.6326 108.37 24.3326 107.07C25.0526 105.77 26.0526 104.77 27.3326 104.07C28.6126 103.37 30.0826 103.02 31.7426 103.02C33.3626 103.02 34.8026 103.36 36.0626 104.04C37.3226 104.72 38.3026 105.69 39.0026 106.95C39.7226 108.21 40.0826 109.68 40.0826 111.36ZM34.8326 110.01C34.8326 109.13 34.5326 108.43 33.9326 107.91C33.3326 107.39 32.5826 107.13 31.6826 107.13C30.8226 107.13 30.0926 107.38 29.4926 107.88C28.9126 108.38 28.5526 109.09 28.4126 110.01H34.8326ZM45.3689 111.6C45.3689 109.88 45.6889 108.37 46.3289 107.07C46.9889 105.77 47.8789 104.77 48.9989 104.07C50.1189 103.37 51.3689 103.02 52.7489 103.02C53.8489 103.02 54.8489 103.25 55.7489 103.71C56.6689 104.17 57.3889 104.79 57.9089 105.57V97.8H63.0389V120H57.9089V117.6C57.4289 118.4 56.7389 119.04 55.8389 119.52C54.9589 120 53.9289 120.24 52.7489 120.24C51.3689 120.24 50.1189 119.89 48.9989 119.19C47.8789 118.47 46.9889 117.46 46.3289 116.16C45.6889 114.84 45.3689 113.32 45.3689 111.6ZM57.9089 111.63C57.9089 110.35 57.5489 109.34 56.8289 108.6C56.1289 107.86 55.2689 107.49 54.2489 107.49C53.2289 107.49 52.3589 107.86 51.6389 108.6C50.9389 109.32 50.5889 110.32 50.5889 111.6C50.5889 112.88 50.9389 113.9 51.6389 114.66C52.3589 115.4 53.2289 115.77 54.2489 115.77C55.2689 115.77 56.1289 115.4 56.8289 114.66C57.5489 113.92 57.9089 112.91 57.9089 111.63ZM75.4802 106.05C76.0802 105.13 76.8302 104.41 77.7302 103.89C78.6302 103.35 79.6302 103.08 80.7302 103.08V108.51H79.3202C78.0402 108.51 77.0802 108.79 76.4402 109.35C75.8002 109.89 75.4802 110.85 75.4802 112.23V120H70.3502V103.26H75.4802V106.05ZM94.4023 120.24C92.7623 120.24 91.2823 119.89 89.9623 119.19C88.6623 118.49 87.6323 117.49 86.8723 116.19C86.1323 114.89 85.7623 113.37 85.7623 111.63C85.7623 109.91 86.1423 108.4 86.9023 107.1C87.6623 105.78 88.7023 104.77 90.0223 104.07C91.3423 103.37 92.8223 103.02 94.4623 103.02C96.1023 103.02 97.5823 103.37 98.9023 104.07C100.222 104.77 101.262 105.78 102.022 107.1C102.782 108.4 103.162 109.91 103.162 111.63C103.162 113.35 102.772 114.87 101.992 116.19C101.232 117.49 100.182 118.49 98.8423 119.19C97.5223 119.89 96.0423 120.24 94.4023 120.24ZM94.4023 115.8C95.3823 115.8 96.2123 115.44 96.8923 114.72C97.5923 114 97.9423 112.97 97.9423 111.63C97.9423 110.29 97.6023 109.26 96.9223 108.54C96.2623 107.82 95.4423 107.46 94.4623 107.46C93.4623 107.46 92.6323 107.82 91.9723 108.54C91.3123 109.24 90.9823 110.27 90.9823 111.63C90.9823 112.97 91.3023 114 91.9423 114.72C92.6023 115.44 93.4223 115.8 94.4023 115.8ZM143.291 98.94V120H138.161V107.37L133.451 120H129.311L124.571 107.34V120H119.441V98.94H125.501L131.411 113.52L137.261 98.94H143.291ZM153.16 101.52C152.26 101.52 151.52 101.26 150.94 100.74C150.38 100.2 150.1 99.54 150.1 98.76C150.1 97.96 150.38 97.3 150.94 96.78C151.52 96.24 152.26 95.97 153.16 95.97C154.04 95.97 154.76 96.24 155.32 96.78C155.9 97.3 156.19 97.96 156.19 98.76C156.19 99.54 155.9 100.2 155.32 100.74C154.76 101.26 154.04 101.52 153.16 101.52ZM155.71 103.26V120H150.58V103.26H155.71ZM169.388 103.02C170.568 103.02 171.598 103.26 172.478 103.74C173.378 104.22 174.068 104.85 174.548 105.63V103.26H179.678V119.97C179.678 121.51 179.368 122.9 178.748 124.14C178.148 125.4 177.218 126.4 175.958 127.14C174.718 127.88 173.168 128.25 171.308 128.25C168.828 128.25 166.818 127.66 165.278 126.48C163.738 125.32 162.858 123.74 162.638 121.74H167.708C167.868 122.38 168.248 122.88 168.848 123.24C169.448 123.62 170.188 123.81 171.068 123.81C172.128 123.81 172.968 123.5 173.588 122.88C174.228 122.28 174.548 121.31 174.548 119.97V117.6C174.048 118.38 173.358 119.02 172.478 119.52C171.598 120 170.568 120.24 169.388 120.24C168.008 120.24 166.758 119.89 165.638 119.19C164.518 118.47 163.628 117.46 162.968 116.16C162.328 114.84 162.008 113.32 162.008 111.6C162.008 109.88 162.328 108.37 162.968 107.07C163.628 105.77 164.518 104.77 165.638 104.07C166.758 103.37 168.008 103.02 169.388 103.02ZM174.548 111.63C174.548 110.35 174.188 109.34 173.468 108.6C172.768 107.86 171.908 107.49 170.888 107.49C169.868 107.49 168.998 107.86 168.278 108.6C167.578 109.32 167.228 110.32 167.228 111.6C167.228 112.88 167.578 113.9 168.278 114.66C168.998 115.4 169.868 115.77 170.888 115.77C171.908 115.77 172.768 115.4 173.468 114.66C174.188 113.92 174.548 112.91 174.548 111.63ZM203.519 103.26V120H198.389V117.72C197.869 118.46 197.159 119.06 196.259 119.52C195.379 119.96 194.399 120.18 193.319 120.18C192.039 120.18 190.909 119.9 189.929 119.34C188.949 118.76 188.189 117.93 187.649 116.85C187.109 115.77 186.839 114.5 186.839 113.04V103.26H191.939V112.35C191.939 113.47 192.229 114.34 192.809 114.96C193.389 115.58 194.169 115.89 195.149 115.89C196.149 115.89 196.939 115.58 197.519 114.96C198.099 114.34 198.389 113.47 198.389 112.35V103.26H203.519ZM226.584 111.36C226.584 111.84 226.554 112.34 226.494 112.86H214.884C214.964 113.9 215.294 114.7 215.874 115.26C216.474 115.8 217.204 116.07 218.064 116.07C219.344 116.07 220.234 115.53 220.734 114.45H226.194C225.914 115.55 225.404 116.54 224.664 117.42C223.944 118.3 223.034 118.99 221.934 119.49C220.834 119.99 219.604 120.24 218.244 120.24C216.604 120.24 215.144 119.89 213.864 119.19C212.584 118.49 211.584 117.49 210.864 116.19C210.144 114.89 209.784 113.37 209.784 111.63C209.784 109.89 210.134 108.37 210.834 107.07C211.554 105.77 212.554 104.77 213.834 104.07C215.114 103.37 216.584 103.02 218.244 103.02C219.864 103.02 221.304 103.36 222.564 104.04C223.824 104.72 224.804 105.69 225.504 106.95C226.224 108.21 226.584 109.68 226.584 111.36ZM221.334 110.01C221.334 109.13 221.034 108.43 220.434 107.91C219.834 107.39 219.084 107.13 218.184 107.13C217.324 107.13 216.594 107.38 215.994 107.88C215.414 108.38 215.054 109.09 214.914 110.01H221.334ZM238.02 97.8V120H232.89V97.8H238.02Z" fill="white"/>
<path d="M56.4362 136.06L52.3962 150H50.3562L47.1162 138.78L43.7562 150L41.7362 150.02L37.8362 136.06H39.7762L42.8162 147.88L46.1762 136.06H48.2162L51.4162 147.84L54.4762 136.06H56.4362ZM70.8279 144.1C70.8279 144.447 70.8079 144.813 70.7679 145.2H62.0079C62.0746 146.28 62.4412 147.127 63.1079 147.74C63.7879 148.34 64.6079 148.64 65.5679 148.64C66.3546 148.64 67.0079 148.46 67.5279 148.1C68.0612 147.727 68.4346 147.233 68.6479 146.62H70.6079C70.3146 147.673 69.7279 148.533 68.8479 149.2C67.9679 149.853 66.8746 150.18 65.5679 150.18C64.5279 150.18 63.5946 149.947 62.7679 149.48C61.9546 149.013 61.3146 148.353 60.8479 147.5C60.3812 146.633 60.1479 145.633 60.1479 144.5C60.1479 143.367 60.3746 142.373 60.8279 141.52C61.2812 140.667 61.9146 140.013 62.7279 139.56C63.5546 139.093 64.5012 138.86 65.5679 138.86C66.6079 138.86 67.5279 139.087 68.3279 139.54C69.1279 139.993 69.7412 140.62 70.1679 141.42C70.6079 142.207 70.8279 143.1 70.8279 144.1ZM68.9479 143.72C68.9479 143.027 68.7946 142.433 68.4879 141.94C68.1812 141.433 67.7612 141.053 67.2279 140.8C66.7079 140.533 66.1279 140.4 65.4879 140.4C64.5679 140.4 63.7812 140.693 63.1279 141.28C62.4879 141.867 62.1212 142.68 62.0279 143.72H68.9479ZM77.4502 141.08C77.8236 140.427 78.3702 139.893 79.0902 139.48C79.8102 139.067 80.6302 138.86 81.5502 138.86C82.5369 138.86 83.4236 139.093 84.2102 139.56C84.9969 140.027 85.6169 140.687 86.0702 141.54C86.5236 142.38 86.7502 143.36 86.7502 144.48C86.7502 145.587 86.5236 146.573 86.0702 147.44C85.6169 148.307 84.9902 148.98 84.1902 149.46C83.4036 149.94 82.5236 150.18 81.5502 150.18C80.6036 150.18 79.7702 149.973 79.0502 149.56C78.3436 149.147 77.8102 148.62 77.4502 147.98V150H75.6302V135.2H77.4502V141.08ZM84.8902 144.48C84.8902 143.653 84.7236 142.933 84.3902 142.32C84.0569 141.707 83.6036 141.24 83.0302 140.92C82.4702 140.6 81.8502 140.44 81.1702 140.44C80.5036 140.44 79.8836 140.607 79.3102 140.94C78.7502 141.26 78.2969 141.733 77.9502 142.36C77.6169 142.973 77.4502 143.687 77.4502 144.5C77.4502 145.327 77.6169 146.053 77.9502 146.68C78.2969 147.293 78.7502 147.767 79.3102 148.1C79.8836 148.42 80.5036 148.58 81.1702 148.58C81.8502 148.58 82.4702 148.42 83.0302 148.1C83.6036 147.767 84.0569 147.293 84.3902 146.68C84.7236 146.053 84.8902 145.32 84.8902 144.48ZM103.618 136.06C105.138 136.06 106.451 136.347 107.558 136.92C108.678 137.48 109.531 138.287 110.118 139.34C110.718 140.393 111.018 141.633 111.018 143.06C111.018 144.487 110.718 145.727 110.118 146.78C109.531 147.82 108.678 148.62 107.558 149.18C106.451 149.727 105.138 150 103.618 150H99.2779V136.06H103.618ZM103.618 148.5C105.418 148.5 106.791 148.027 107.738 147.08C108.685 146.12 109.158 144.78 109.158 143.06C109.158 141.327 108.678 139.973 107.718 139C106.771 138.027 105.405 137.54 103.618 137.54H101.098V148.5H103.618ZM125.819 144.1C125.819 144.447 125.799 144.813 125.759 145.2H116.999C117.065 146.28 117.432 147.127 118.099 147.74C118.779 148.34 119.599 148.64 120.559 148.64C121.345 148.64 121.999 148.46 122.519 148.1C123.052 147.727 123.425 147.233 123.639 146.62H125.599C125.305 147.673 124.719 148.533 123.839 149.2C122.959 149.853 121.865 150.18 120.559 150.18C119.519 150.18 118.585 149.947 117.759 149.48C116.945 149.013 116.305 148.353 115.839 147.5C115.372 146.633 115.139 145.633 115.139 144.5C115.139 143.367 115.365 142.373 115.819 141.52C116.272 140.667 116.905 140.013 117.719 139.56C118.545 139.093 119.492 138.86 120.559 138.86C121.599 138.86 122.519 139.087 123.319 139.54C124.119 139.993 124.732 140.62 125.159 141.42C125.599 142.207 125.819 143.1 125.819 144.1ZM123.939 143.72C123.939 143.027 123.785 142.433 123.479 141.94C123.172 141.433 122.752 141.053 122.219 140.8C121.699 140.533 121.119 140.4 120.479 140.4C119.559 140.4 118.772 140.693 118.119 141.28C117.479 141.867 117.112 142.68 117.019 143.72H123.939ZM134.501 150.18C133.661 150.18 132.908 150.04 132.241 149.76C131.574 149.467 131.048 149.067 130.661 148.56C130.274 148.04 130.061 147.447 130.021 146.78H131.901C131.954 147.327 132.208 147.773 132.661 148.12C133.128 148.467 133.734 148.64 134.481 148.64C135.174 148.64 135.721 148.487 136.121 148.18C136.521 147.873 136.721 147.487 136.721 147.02C136.721 146.54 136.508 146.187 136.081 145.96C135.654 145.72 134.994 145.487 134.101 145.26C133.288 145.047 132.621 144.833 132.101 144.62C131.594 144.393 131.154 144.067 130.781 143.64C130.421 143.2 130.241 142.627 130.241 141.92C130.241 141.36 130.408 140.847 130.741 140.38C131.074 139.913 131.548 139.547 132.161 139.28C132.774 139 133.474 138.86 134.261 138.86C135.474 138.86 136.454 139.167 137.201 139.78C137.948 140.393 138.348 141.233 138.401 142.3H136.581C136.541 141.727 136.308 141.267 135.881 140.92C135.468 140.573 134.908 140.4 134.201 140.4C133.548 140.4 133.028 140.54 132.641 140.82C132.254 141.1 132.061 141.467 132.061 141.92C132.061 142.28 132.174 142.58 132.401 142.82C132.641 143.047 132.934 143.233 133.281 143.38C133.641 143.513 134.134 143.667 134.761 143.84C135.548 144.053 136.188 144.267 136.681 144.48C137.174 144.68 137.594 144.987 137.941 145.4C138.301 145.813 138.488 146.353 138.501 147.02C138.501 147.62 138.334 148.16 138.001 148.64C137.668 149.12 137.194 149.5 136.581 149.78C135.981 150.047 135.288 150.18 134.501 150.18ZM144.41 137.26C144.063 137.26 143.77 137.14 143.53 136.9C143.29 136.66 143.17 136.367 143.17 136.02C143.17 135.673 143.29 135.38 143.53 135.14C143.77 134.9 144.063 134.78 144.41 134.78C144.743 134.78 145.023 134.9 145.25 135.14C145.49 135.38 145.61 135.673 145.61 136.02C145.61 136.367 145.49 136.66 145.25 136.9C145.023 137.14 144.743 137.26 144.41 137.26ZM145.29 139.04V150H143.47V139.04H145.29ZM155.312 138.86C156.259 138.86 157.085 139.067 157.792 139.48C158.512 139.893 159.045 140.413 159.392 141.04V139.04H161.232V150.24C161.232 151.24 161.019 152.127 160.592 152.9C160.165 153.687 159.552 154.3 158.752 154.74C157.965 155.18 157.045 155.4 155.992 155.4C154.552 155.4 153.352 155.06 152.392 154.38C151.432 153.7 150.865 152.773 150.692 151.6H152.492C152.692 152.267 153.105 152.8 153.732 153.2C154.359 153.613 155.112 153.82 155.992 153.82C156.992 153.82 157.805 153.507 158.432 152.88C159.072 152.253 159.392 151.373 159.392 150.24V147.94C159.032 148.58 158.499 149.113 157.792 149.54C157.085 149.967 156.259 150.18 155.312 150.18C154.339 150.18 153.452 149.94 152.652 149.46C151.865 148.98 151.245 148.307 150.792 147.44C150.339 146.573 150.112 145.587 150.112 144.48C150.112 143.36 150.339 142.38 150.792 141.54C151.245 140.687 151.865 140.027 152.652 139.56C153.452 139.093 154.339 138.86 155.312 138.86ZM159.392 144.5C159.392 143.673 159.225 142.953 158.892 142.34C158.559 141.727 158.105 141.26 157.532 140.94C156.972 140.607 156.352 140.44 155.672 140.44C154.992 140.44 154.372 140.6 153.812 140.92C153.252 141.24 152.805 141.707 152.472 142.32C152.139 142.933 151.972 143.653 151.972 144.48C151.972 145.32 152.139 146.053 152.472 146.68C152.805 147.293 153.252 147.767 153.812 148.1C154.372 148.42 154.992 148.58 155.672 148.58C156.352 148.58 156.972 148.42 157.532 148.1C158.105 147.767 158.559 147.293 158.892 146.68C159.225 146.053 159.392 145.327 159.392 144.5ZM172.048 138.84C173.381 138.84 174.461 139.247 175.288 140.06C176.114 140.86 176.528 142.02 176.528 143.54V150H174.728V143.8C174.728 142.707 174.454 141.873 173.908 141.3C173.361 140.713 172.614 140.42 171.668 140.42C170.708 140.42 169.941 140.72 169.368 141.32C168.808 141.92 168.528 142.793 168.528 143.94V150H166.708V139.04H168.528V140.6C168.888 140.04 169.374 139.607 169.988 139.3C170.614 138.993 171.301 138.84 172.048 138.84ZM191.901 144.1C191.901 144.447 191.881 144.813 191.841 145.2H183.081C183.147 146.28 183.514 147.127 184.181 147.74C184.861 148.34 185.681 148.64 186.641 148.64C187.427 148.64 188.081 148.46 188.601 148.1C189.134 147.727 189.507 147.233 189.721 146.62H191.681C191.387 147.673 190.801 148.533 189.921 149.2C189.041 149.853 187.947 150.18 186.641 150.18C185.601 150.18 184.667 149.947 183.841 149.48C183.027 149.013 182.387 148.353 181.921 147.5C181.454 146.633 181.221 145.633 181.221 144.5C181.221 143.367 181.447 142.373 181.901 141.52C182.354 140.667 182.987 140.013 183.801 139.56C184.627 139.093 185.574 138.86 186.641 138.86C187.681 138.86 188.601 139.087 189.401 139.54C190.201 139.993 190.814 140.62 191.241 141.42C191.681 142.207 191.901 143.1 191.901 144.1ZM190.021 143.72C190.021 143.027 189.867 142.433 189.561 141.94C189.254 141.433 188.834 141.053 188.301 140.8C187.781 140.533 187.201 140.4 186.561 140.4C185.641 140.4 184.854 140.693 184.201 141.28C183.561 141.867 183.194 142.68 183.101 143.72H190.021ZM198.523 140.82C198.843 140.193 199.296 139.707 199.883 139.36C200.483 139.013 201.21 138.84 202.063 138.84V140.72H201.583C199.543 140.72 198.523 141.827 198.523 144.04V150H196.703V139.04H198.523V140.82Z" fill="white"/>
<defs>
<filter id="filter0_i_325_72" x="70" y="54" width="76" height="22" filterUnits="userSpaceOnUse" color-interpolation-filters="sRGB">
<feFlood flood-opacity="0" result="BackgroundImageFix"/>
<feBlend mode="normal" in="SourceGraphic" in2="BackgroundImageFix" result="shape"/>
<feColorMatrix in="SourceAlpha" type="matrix" values="0 0 0 0 0 0 0 0 0 0 0 0 0 0 0 0 0 0 127 0" result="hardAlpha"/>
<feOffset dy="1"/>
<feGaussianBlur stdDeviation="2"/>
<feComposite in2="hardAlpha" operator="arithmetic" k2="-1" k3="1"/>
<feColorMatrix type="matrix" values="0 0 0 0 0 0 0 0 0 0 0 0 0 0 0 0 0 0 0.25 0"/>
<feBlend mode="normal" in2="shape" result="effect1_innerShadow_325_72"/>
</filter>
<filter id="filter1_i_325_72" x="127" y="36" width="19" height="18" filterUnits="userSpaceOnUse" color-interpolation-filters="sRGB">
<feFlood flood-opacity="0" result="BackgroundImageFix"/>
<feBlend mode="normal" in="SourceGraphic" in2="BackgroundImageFix" result="shape"/>
<feColorMatrix in="SourceAlpha" type="matrix" values="0 0 0 0 0 0 0 0 0 0 0 0 0 0 0 0 0 0 127 0" result="hardAlpha"/>
<feOffset dy="-2"/>
<feGaussianBlur stdDeviation="2"/>
<feComposite in2="hardAlpha" operator="arithmetic" k2="-1" k3="1"/>
<feColorMatrix type="matrix" values="0 0 0 0 0 0 0 0 0 0 0 0 0 0 0 0 0 0 0.25 0"/>
<feBlend mode="normal" in2="shape" result="effect1_innerShadow_325_72"/>
</filter>
<filter id="filter2_i_325_72" x="93" y="-4" width="76" height="25" filterUnits="userSpaceOnUse" color-interpolation-filters="sRGB">
<feFlood flood-opacity="0" result="BackgroundImageFix"/>
<feBlend mode="normal" in="SourceGraphic" in2="BackgroundImageFix" result="shape"/>
<feColorMatrix in="SourceAlpha" type="matrix" values="0 0 0 0 0 0 0 0 0 0 0 0 0 0 0 0 0 0 127 0" result="hardAlpha"/>
<feOffset dy="-4"/>
<feGaussianBlur stdDeviation="2"/>
<feComposite in2="hardAlpha" operator="arithmetic" k2="-1" k3="1"/>
<feColorMatrix type="matrix" values="0 0 0 0 0 0 0 0 0 0 0 0 0 0 0 0 0 0 0.25 0"/>
<feBlend mode="normal" in2="shape" result="effect1_innerShadow_325_72"/>
</filter>
<filter id="filter3_i_325_72" x="93" y="21" width="19" height="20" filterUnits="userSpaceOnUse" color-interpolation-filters="sRGB">
<feFlood flood-opacity="0" result="BackgroundImageFix"/>
<feBlend mode="normal" in="SourceGraphic" in2="BackgroundImageFix" result="shape"/>
<feColorMatrix in="SourceAlpha" type="matrix" values="0 0 0 0 0 0 0 0 0 0 0 0 0 0 0 0 0 0 127 0" result="hardAlpha"/>
<feOffset dy="3"/>
<feGaussianBlur stdDeviation="2"/>
<feComposite in2="hardAlpha" operator="arithmetic" k2="-1" k3="1"/>
<feColorMatrix type="matrix" values="0 0 0 0 0 0 0 0 0 0 0 0 0 0 0 0 0 0 0.25 0"/>
<feBlend mode="normal" in2="shape" result="effect1_innerShadow_325_72"/>
</filter>
</defs>
</svg>
