<svg width="22" height="22" viewBox="0 0 22 22" fill="none" xmlns="http://www.w3.org/2000/svg">
<path d="M18.6374 3.31918C17.644 2.31613 16.461 1.52081 15.1572 0.979577C13.8534 0.438339 12.4549 0.162008 11.0432 0.166684C5.1282 0.166684 0.30737 4.98752 0.30737 10.9025C0.30737 12.7984 0.805703 14.64 1.73737 16.265L0.220703 21.8334L5.9082 20.3384C7.47904 21.1942 9.24487 21.6492 11.0432 21.6492C16.9582 21.6492 21.779 16.8284 21.779 10.9134C21.779 8.04252 20.6632 5.34502 18.6374 3.31918ZM11.0432 19.8292C9.43987 19.8292 7.86904 19.3959 6.4932 18.5834L6.1682 18.3884L2.7882 19.2767L3.68737 15.9834L3.4707 15.6475C2.57971 14.2252 2.1067 12.5809 2.1057 10.9025C2.1057 5.98418 6.11404 1.97585 11.0324 1.97585C13.4157 1.97585 15.6582 2.90752 17.3374 4.59752C18.169 5.42504 18.8279 6.40944 19.2761 7.49362C19.7243 8.57781 19.9527 9.74019 19.9482 10.9134C19.9699 15.8317 15.9615 19.8292 11.0432 19.8292ZM15.9399 13.1559C15.669 13.0259 14.3474 12.3759 14.109 12.2784C13.8599 12.1917 13.6865 12.1484 13.5024 12.4084C13.3182 12.6792 12.809 13.2859 12.6574 13.4592C12.5057 13.6434 12.3432 13.665 12.0724 13.5242C11.8015 13.3942 10.9349 13.1017 9.91654 12.1917C9.11487 11.4767 8.58404 10.5992 8.42154 10.3284C8.26987 10.0575 8.39987 9.91669 8.5407 9.77585C8.65987 9.65668 8.81154 9.46169 8.94154 9.31002C9.07154 9.15835 9.1257 9.03918 9.21237 8.86585C9.29904 8.68168 9.2557 8.53002 9.1907 8.40002C9.1257 8.27002 8.58403 6.94835 8.36737 6.40668C8.1507 5.88668 7.9232 5.95168 7.7607 5.94085H7.2407C7.05654 5.94085 6.77487 6.00585 6.5257 6.27668C6.28737 6.54752 5.59404 7.19752 5.59404 8.51919C5.59404 9.84085 6.5582 11.1192 6.6882 11.2925C6.8182 11.4767 8.58404 14.185 11.2707 15.3442C11.9099 15.6259 12.4082 15.7884 12.7982 15.9075C13.4374 16.1134 14.0224 16.0809 14.4882 16.0159C15.0082 15.94 16.0807 15.3659 16.2974 14.7375C16.5249 14.1092 16.5249 13.5784 16.449 13.4592C16.3732 13.34 16.2107 13.2859 15.9399 13.1559Z" fill="#34364E"/>
</svg>
